<svg xmlns="http://www.w3.org/2000/svg" xmlns:xlink="http://www.w3.org/1999/xlink" width="1000" zoomAndPan="magnify" viewBox="0 0 750 749.999995" height="1000" preserveAspectRatio="xMidYMid meet" version="1.0"><defs><g/><clipPath id="cd4f110036"><path d="M 266.328125 266.535156 L 518.324219 266.535156 L 518.324219 529.785156 L 266.328125 529.785156 Z M 266.328125 266.535156 " clip-rule="nonzero"/></clipPath><clipPath id="2d4b8e6db4"><path d="M 294.828125 266.535156 L 490.152344 266.535156 C 497.710938 266.535156 504.957031 269.539062 510.304688 274.882812 C 515.648438 280.226562 518.648438 287.476562 518.648438 295.035156 L 518.648438 501.191406 C 518.648438 508.75 515.648438 516 510.304688 521.34375 C 504.957031 526.691406 497.710938 529.691406 490.152344 529.691406 L 294.828125 529.691406 C 287.269531 529.691406 280.019531 526.691406 274.675781 521.34375 C 269.332031 516 266.328125 508.75 266.328125 501.191406 L 266.328125 295.035156 C 266.328125 287.476562 269.332031 280.226562 274.675781 274.882812 C 280.019531 269.539062 287.269531 266.535156 294.828125 266.535156 Z M 294.828125 266.535156 " clip-rule="nonzero"/></clipPath><clipPath id="3957a2dd01"><path d="M 166 168 L 566.640625 168 L 566.640625 454 L 166 454 Z M 166 168 " clip-rule="nonzero"/></clipPath><clipPath id="aa9b77e465"><path d="M 270 392 L 551 392 L 551 523.035156 L 270 523.035156 Z M 270 392 " clip-rule="nonzero"/></clipPath><clipPath id="d9e22eaed1"><path d="M 266.324219 266.535156 L 519 266.535156 L 519 474 L 266.324219 474 Z M 266.324219 266.535156 " clip-rule="nonzero"/></clipPath></defs><g clip-path="url(#cd4f110036)"><g clip-path="url(#2d4b8e6db4)"><path stroke-linecap="butt" transform="matrix(0.75, 0, 0, 0.75, 266.328095, 266.536178)" fill="none" stroke-linejoin="miter" d="M 38.000041 -0.00136261 L 298.432346 -0.00136261 C 308.510471 -0.00136261 318.17193 4.003846 325.302139 11.128846 C 332.427139 18.253847 336.427139 27.920514 336.427139 37.998639 L 336.427139 312.873653 C 336.427139 322.951778 332.427139 332.618445 325.302139 339.743446 C 318.17193 346.873654 308.510471 350.873654 298.432346 350.873654 L 38.000041 350.873654 C 27.921916 350.873654 18.255249 346.873654 11.130249 339.743446 C 4.005248 332.618445 0.0000396387 322.951778 0.0000396387 312.873653 L 0.0000396387 37.998639 C 0.0000396387 27.920514 4.005248 18.253847 11.130249 11.128846 C 18.255249 4.003846 27.921916 -0.00136261 38.000041 -0.00136261 Z M 38.000041 -0.00136261 " stroke="#1b75bc" stroke-width="44" stroke-opacity="1" stroke-miterlimit="4"/></g></g><g clip-path="url(#3957a2dd01)"><path fill="#30b0f2" d="M 566.351562 271.085938 C 501.445312 196.351562 394.65625 172.992188 305.164062 213.582031 C 213.890625 254.957031 161.148438 353.523438 177.347656 453.085938 C 142.433594 347.027344 194.074219 231.125 294.417969 186.609375 C 391.875 143.398438 508.890625 179.171875 566.351562 271.085938 Z M 566.351562 271.085938 " fill-opacity="1" fill-rule="nonzero"/></g><path fill="#1a3f90" d="M 316.695312 228.246094 C 235.960938 276.691406 198.738281 373.007812 225.421875 459.003906 C 249.328125 536.148438 320.523438 591.769531 404.039062 597.792969 C 310.929688 606.75 225.054688 550.1875 198.425781 466.125 C 168.804688 372.746094 219.183594 266.425781 316.695312 228.246094 Z M 316.695312 228.246094 " fill-opacity="1" fill-rule="nonzero"/><path fill="#1a3f90" d="M 548.578125 184.410156 L 548.578125 146.4375 L 559.480469 143.398438 L 381.023438 75 L 202.566406 143.398438 L 260.914062 160.367188 C 260.914062 173.882812 260.914062 187.445312 260.914062 200.957031 C 276.800781 190.222656 319.160156 164.613281 379.085938 163.929688 C 442.046875 163.199219 486.664062 190.328125 502.335938 200.957031 C 502.285156 190.429688 502.234375 179.957031 502.179688 169.429688 C 496.992188 166.8125 491.589844 164.191406 485.980469 161.625 C 470.777344 154.765625 456.152344 149.421875 442.519531 145.179688 C 455.15625 145.914062 470.304688 148.113281 486.765625 153.507812 C 492.375 155.339844 497.566406 157.332031 502.335938 159.480469 L 542.652344 148.167969 L 542.652344 184.460938 C 538.617188 185.71875 535.679688 189.488281 535.679688 193.941406 C 535.679688 199.441406 540.136719 203.890625 545.640625 203.890625 C 551.144531 203.890625 555.601562 199.441406 555.601562 193.941406 C 555.550781 189.4375 552.613281 185.664062 548.578125 184.410156 Z M 548.578125 184.410156 " fill-opacity="1" fill-rule="nonzero"/><g clip-path="url(#aa9b77e465)"><path fill="#f15a24" d="M 548.738281 392.664062 L 512.328125 393.324219 C 510.621094 393.351562 509.640625 395.28125 510.621094 396.679688 L 516.253906 404.734375 C 516.328125 404.839844 516.304688 404.988281 516.199219 405.0625 L 395.378906 490.910156 C 395.21875 491.019531 395.003906 490.90625 395.003906 490.71875 L 395.003906 425.308594 C 395.003906 424.445312 394.546875 423.648438 393.804688 423.207031 C 393.066406 422.761719 392.148438 422.746094 391.386719 423.160156 L 271.890625 487.824219 C 271.320312 488.132812 270.898438 488.65625 270.714844 489.28125 C 270.53125 489.902344 270.601562 490.574219 270.910156 491.144531 L 276.988281 502.320312 C 277.632812 503.511719 279.117188 503.945312 280.308594 503.300781 L 377.039062 451.019531 C 377.195312 450.929688 377.386719 451.046875 377.386719 451.226562 L 377.386719 520.394531 C 377.386719 521.097656 377.605469 521.808594 378.105469 522.300781 C 378.597656 522.777344 379.214844 523.011719 379.835938 523.011719 C 380.332031 523.011719 380.828125 522.859375 381.25 522.558594 L 526.292969 419.503906 C 526.398438 419.425781 526.546875 419.453125 526.621094 419.558594 L 533.929688 430 C 534.90625 431.402344 537.050781 431.140625 537.664062 429.546875 L 550.769531 395.566406 C 551.3125 394.148438 550.253906 392.636719 548.738281 392.664062 " fill-opacity="1" fill-rule="nonzero"/></g><path fill="#009245" d="M 339.117188 353.070312 L 339.117188 444.203125 C 339.117188 444.289062 339.066406 444.367188 338.992188 444.410156 L 304.488281 463.179688 C 304.328125 463.265625 304.136719 463.152344 304.136719 462.976562 L 304.136719 353.070312 C 304.136719 352.941406 304.242188 352.835938 304.375 352.835938 L 338.878906 352.835938 C 339.007812 352.835938 339.117188 352.941406 339.117188 353.070312 " fill-opacity="1" fill-rule="nonzero"/><path fill="#e52e97" d="M 430.09375 375.601562 L 430.09375 458.316406 C 430.09375 458.390625 430.054688 458.464844 429.992188 458.511719 L 401.742188 478.582031 C 401.585938 478.691406 401.367188 478.578125 401.367188 478.390625 L 401.367188 425.304688 C 401.367188 422.222656 399.714844 419.316406 397.0625 417.742188 C 396.496094 417.40625 395.902344 417.132812 395.285156 416.9375 C 395.191406 416.910156 395.125 416.820312 395.125 416.71875 L 395.125 375.601562 C 395.125 375.46875 395.230469 375.363281 395.359375 375.363281 L 429.855469 375.363281 C 429.988281 375.363281 430.09375 375.46875 430.09375 375.601562 " fill-opacity="1" fill-rule="nonzero"/><path fill="#f15a24" d="M 384.605469 321.261719 L 384.605469 419.46875 C 384.605469 419.554688 384.558594 419.632812 384.480469 419.675781 L 349.984375 438.4375 C 349.828125 438.523438 349.636719 438.410156 349.636719 438.226562 L 349.636719 321.261719 C 349.636719 321.132812 349.742188 321.023438 349.871094 321.023438 L 384.367188 321.023438 C 384.496094 321.023438 384.605469 321.132812 384.605469 321.261719 " fill-opacity="1" fill-rule="nonzero"/><g clip-path="url(#d9e22eaed1)"><path fill="#1b75bc" d="M 279.042969 466.859375 L 279.042969 301.222656 C 279.042969 289.128906 288.882812 279.285156 300.976562 279.285156 L 483.835938 279.285156 C 495.933594 279.285156 505.769531 289.128906 505.769531 301.222656 L 505.769531 374.851562 C 505.769531 378.363281 508.621094 381.214844 512.132812 381.214844 C 515.644531 381.214844 518.492188 378.363281 518.492188 374.851562 L 518.492188 301.222656 C 518.492188 282.109375 502.945312 266.5625 483.835938 266.5625 L 300.976562 266.5625 C 281.867188 266.5625 266.320312 282.109375 266.320312 301.222656 L 266.320312 466.859375 C 266.320312 470.371094 269.167969 473.21875 272.683594 473.21875 C 276.195312 473.21875 279.042969 470.371094 279.042969 466.859375 Z M 479.007812 302.886719 L 479.007812 423.558594 C 479.007812 423.632812 478.96875 423.707031 478.90625 423.753906 L 444.402344 448.269531 C 444.246094 448.378906 444.03125 448.269531 444.03125 448.074219 L 444.03125 302.886719 C 444.03125 302.757812 444.132812 302.652344 444.265625 302.652344 L 478.769531 302.652344 C 478.902344 302.652344 479.007812 302.757812 479.007812 302.886719 " fill-opacity="1" fill-rule="nonzero"/></g><g fill="#1b75bc" fill-opacity="1"><g transform="translate(160.540996, 683.788691)"><g><path d="M 64.3125 -60.023438 L 64.3125 0 L 55.734375 0 L 12.863281 -46.132812 L 12.863281 0 L 4.289062 0 L 4.289062 -60.023438 L 12.863281 -60.023438 L 55.734375 -14.578125 L 55.734375 -60.023438 Z M 64.3125 -60.023438 "/></g></g></g><g fill="#1b75bc" fill-opacity="1"><g transform="translate(229.137886, 683.788691)"><g><path d="M 47.160156 -51.449219 L 21.4375 -51.449219 C 19.09375 -51.449219 17.078125 -50.605469 15.390625 -48.917969 C 13.707031 -47.234375 12.863281 -45.21875 12.863281 -42.875 L 12.863281 -25.722656 L 55.734375 -25.722656 L 55.734375 -42.875 C 55.734375 -45.21875 54.894531 -47.234375 53.207031 -48.917969 C 51.519531 -50.605469 49.503906 -51.449219 47.160156 -51.449219 Z M 64.3125 -42.875 L 64.3125 0 L 55.734375 0 L 55.734375 -17.148438 L 12.863281 -17.148438 L 12.863281 0 L 4.289062 0 L 4.289062 -42.875 C 4.289062 -45.902344 5.042969 -48.71875 6.558594 -51.320312 C 8.074219 -53.921875 10.132812 -56.023438 12.734375 -57.621094 C 15.335938 -59.222656 18.234375 -60.023438 21.4375 -60.023438 L 47.160156 -60.023438 C 50.246094 -60.023438 53.0625 -59.25 55.605469 -57.707031 C 58.152344 -56.164062 60.222656 -54.105469 61.824219 -51.535156 C 63.425781 -48.960938 64.253906 -46.074219 64.3125 -42.875 Z M 64.3125 -42.875 "/></g></g></g><g fill="#1b75bc" fill-opacity="1"><g transform="translate(295.16235, 683.788691)"><g><path d="M 60.023438 -51.449219 L 34.300781 -51.449219 L 34.300781 0 L 25.722656 0 L 25.722656 -51.449219 L 0 -51.449219 L 0 -60.023438 L 60.023438 -60.023438 Z M 60.023438 -51.449219 "/></g></g></g><g fill="#1b75bc" fill-opacity="1"><g transform="translate(355.184618, 683.788691)"><g><path d="M 64.3125 -60.023438 L 64.3125 0 L 55.734375 0 L 12.863281 -46.132812 L 12.863281 0 L 4.289062 0 L 4.289062 -60.023438 L 12.863281 -60.023438 L 55.734375 -14.578125 L 55.734375 -60.023438 Z M 64.3125 -60.023438 "/></g></g></g><g fill="#1b75bc" fill-opacity="1"><g transform="translate(423.781507, 683.788691)"><g><path d="M 12.863281 -60.023438 L 12.863281 -8.574219 L 64.3125 -8.574219 L 64.3125 0 L 4.289062 0 L 4.289062 -60.023438 Z M 12.863281 -60.023438 "/></g></g></g><g fill="#1b75bc" fill-opacity="1"><g transform="translate(488.091097, 683.788691)"><g><path d="M 47.160156 -51.449219 L 21.4375 -51.449219 C 19.09375 -51.449219 17.078125 -50.605469 15.390625 -48.917969 C 13.707031 -47.234375 12.863281 -45.21875 12.863281 -42.875 L 12.863281 -25.722656 L 55.734375 -25.722656 L 55.734375 -42.875 C 55.734375 -45.21875 54.894531 -47.234375 53.207031 -48.917969 C 51.519531 -50.605469 49.503906 -51.449219 47.160156 -51.449219 Z M 64.3125 -42.875 L 64.3125 0 L 55.734375 0 L 55.734375 -17.148438 L 12.863281 -17.148438 L 12.863281 0 L 4.289062 0 L 4.289062 -42.875 C 4.289062 -45.902344 5.042969 -48.71875 6.558594 -51.320312 C 8.074219 -53.921875 10.132812 -56.023438 12.734375 -57.621094 C 15.335938 -59.222656 18.234375 -60.023438 21.4375 -60.023438 L 47.160156 -60.023438 C 50.246094 -60.023438 53.0625 -59.25 55.605469 -57.707031 C 58.152344 -56.164062 60.222656 -54.105469 61.824219 -51.535156 C 63.425781 -48.960938 64.253906 -46.074219 64.3125 -42.875 Z M 64.3125 -42.875 "/></g></g></g><g fill="#1b75bc" fill-opacity="1"><g transform="translate(556.68801, 683.788691)"><g><path d="M 47.160156 0 L 4.289062 0 L 4.289062 -60.023438 L 47.160156 -60.023438 C 50.191406 -60.023438 53.007812 -59.25 55.605469 -57.707031 C 58.207031 -56.164062 60.308594 -54.105469 61.910156 -51.535156 C 63.511719 -48.960938 64.3125 -46.074219 64.3125 -42.875 C 64.3125 -37.730469 62.367188 -33.441406 58.480469 -30.011719 C 62.367188 -26.582031 64.3125 -22.292969 64.3125 -17.148438 C 64.3125 -14.0625 63.554688 -11.234375 62.039062 -8.660156 C 60.523438 -6.089844 58.464844 -4.03125 55.863281 -2.488281 C 53.261719 -0.941406 50.363281 -0.113281 47.160156 0 Z M 47.160156 -25.722656 L 12.863281 -25.722656 L 12.863281 -8.574219 L 47.160156 -8.574219 C 49.503906 -8.574219 51.519531 -9.417969 53.207031 -11.105469 C 54.894531 -12.789062 55.734375 -14.804688 55.734375 -17.148438 C 55.734375 -19.492188 54.894531 -21.507812 53.207031 -23.195312 C 51.519531 -24.882812 49.503906 -25.722656 47.160156 -25.722656 Z M 12.863281 -51.449219 L 12.863281 -34.300781 L 47.160156 -34.300781 C 49.503906 -34.300781 51.519531 -35.140625 53.207031 -36.828125 C 54.894531 -38.515625 55.734375 -40.53125 55.734375 -42.875 C 55.734375 -45.21875 54.894531 -47.234375 53.207031 -48.917969 C 51.519531 -50.605469 49.503906 -51.449219 47.160156 -51.449219 Z M 12.863281 -51.449219 "/></g></g></g></svg>