<svg xmlns="http://www.w3.org/2000/svg" xmlns:xlink="http://www.w3.org/1999/xlink" width="1000" zoomAndPan="magnify" viewBox="0 0 750 749.999995" height="1000" preserveAspectRatio="xMidYMid meet" version="1.0"><defs><clipPath id="e23784baa3"><path d="M 255.890625 297.230469 L 562.640625 297.230469 L 562.640625 616.726562 L 255.890625 616.726562 Z M 255.890625 297.230469 " clip-rule="nonzero"/></clipPath><clipPath id="e0b2b95565"><path d="M 284.390625 297.230469 L 533.976562 297.230469 C 541.535156 297.230469 548.785156 300.234375 554.128906 305.578125 C 559.472656 310.921875 562.476562 318.171875 562.476562 325.730469 L 562.476562 588.480469 C 562.476562 596.039062 559.472656 603.289062 554.128906 608.632812 C 548.785156 613.976562 541.535156 616.980469 533.976562 616.980469 L 284.390625 616.980469 C 276.832031 616.980469 269.582031 613.976562 264.238281 608.632812 C 258.890625 603.289062 255.890625 596.039062 255.890625 588.480469 L 255.890625 325.730469 C 255.890625 318.171875 258.890625 310.921875 264.238281 305.578125 C 269.582031 300.234375 276.832031 297.230469 284.390625 297.230469 Z M 284.390625 297.230469 " clip-rule="nonzero"/></clipPath><clipPath id="5a82921006"><path d="M 178 64.5 L 612 64.5 L 612 222 L 178 222 Z M 178 64.5 " clip-rule="nonzero"/></clipPath><clipPath id="4e1417ffcb"><path d="M 261 450 L 602 450 L 602 608.476562 L 261 608.476562 Z M 261 450 " clip-rule="nonzero"/></clipPath><clipPath id="91ac9decdc"><path d="M 255.890625 297.226562 L 563 297.226562 L 563 549 L 255.890625 549 Z M 255.890625 297.226562 " clip-rule="nonzero"/></clipPath></defs><g clip-path="url(#e23784baa3)"><g clip-path="url(#e0b2b95565)"><path stroke-linecap="butt" transform="matrix(0.75, 0, 0, 0.75, 255.88956, 297.230425)" fill="none" stroke-linejoin="miter" d="M 38.001425 0.0000587134 L 370.782712 0.0000587134 C 380.860838 0.0000587134 390.527506 4.005267 397.652507 11.130268 C 404.777508 18.255269 408.782716 27.921937 408.782716 38.000063 L 408.782716 388.333436 C 408.782716 398.411562 404.777508 408.07823 397.652507 415.203231 C 390.527506 422.328231 380.860838 426.33344 370.782712 426.33344 L 38.001425 426.33344 C 27.923298 426.33344 18.256631 422.328231 11.13163 415.203231 C 4.001421 408.07823 0.00142029 398.411562 0.00142029 388.333436 L 0.00142029 38.000063 C 0.00142029 27.921937 4.001421 18.255269 11.13163 11.130268 C 18.256631 4.005267 27.923298 0.0000587134 38.001425 0.0000587134 Z M 38.001425 0.0000587134 " stroke="#1b75bc" stroke-width="44" stroke-opacity="1" stroke-miterlimit="4"/></g></g><path fill="#30b0f2" d="M 619.898438 302.902344 C 541.121094 212.035156 411.496094 183.636719 302.871094 232.984375 C 192.082031 283.289062 128.066406 403.128906 147.730469 524.175781 C 105.351562 395.230469 168.03125 254.316406 289.828125 200.191406 C 408.125 147.660156 550.15625 191.152344 619.898438 302.902344 Z M 619.898438 302.902344 " fill-opacity="1" fill-rule="nonzero"/><path fill="#1a3f90" d="M 316.871094 250.816406 C 218.875 309.714844 173.695312 426.816406 206.082031 531.371094 C 235.101562 625.164062 321.515625 692.789062 422.886719 700.113281 C 309.871094 711 205.636719 642.230469 173.3125 540.03125 C 137.359375 426.496094 198.511719 297.234375 316.871094 250.816406 Z M 316.871094 250.816406 " fill-opacity="1" fill-rule="nonzero"/><g clip-path="url(#5a82921006)"><path fill="#1a3f90" d="M 598.328125 197.519531 L 598.328125 151.355469 L 611.5625 147.660156 L 394.953125 64.5 L 178.339844 147.660156 L 249.164062 168.292969 C 249.164062 184.71875 249.164062 201.210938 249.164062 217.640625 C 268.445312 204.585938 319.863281 173.449219 392.597656 172.621094 C 469.023438 171.730469 523.175781 204.714844 542.203125 217.640625 C 542.136719 204.839844 542.074219 192.105469 542.011719 179.308594 C 535.710938 176.125 529.15625 172.941406 522.347656 169.820312 C 503.894531 161.476562 486.140625 154.984375 469.59375 149.824219 C 484.929688 150.71875 503.320312 153.390625 523.300781 159.949219 C 530.113281 162.179688 536.410156 164.597656 542.203125 167.210938 L 591.136719 153.453125 L 591.136719 197.582031 C 586.238281 199.109375 582.675781 203.695312 582.675781 209.109375 C 582.675781 215.792969 588.082031 221.207031 594.765625 221.207031 C 601.445312 221.207031 606.855469 215.792969 606.855469 209.109375 C 606.792969 203.632812 603.226562 199.046875 598.328125 197.519531 Z M 598.328125 197.519531 " fill-opacity="1" fill-rule="nonzero"/></g><g clip-path="url(#4e1417ffcb)"><path fill="#f15a24" d="M 599.246094 450.277344 L 554.976562 451.078125 C 552.902344 451.113281 551.707031 453.449219 552.902344 455.148438 L 559.75 464.921875 C 559.839844 465.050781 559.8125 465.234375 559.683594 465.324219 L 412.789062 569.496094 C 412.597656 569.628906 412.335938 569.492188 412.335938 569.261719 L 412.335938 489.890625 C 412.335938 488.84375 411.78125 487.875 410.878906 487.339844 C 409.980469 486.800781 408.863281 486.78125 407.941406 487.28125 L 262.65625 565.753906 C 261.964844 566.128906 261.449219 566.761719 261.226562 567.519531 C 261.003906 568.273438 261.089844 569.089844 261.464844 569.777344 L 268.855469 583.34375 C 269.636719 584.785156 271.441406 585.316406 272.890625 584.53125 L 390.492188 521.085938 C 390.683594 520.980469 390.917969 521.121094 390.917969 521.339844 L 390.917969 605.273438 C 390.917969 606.125 391.179688 606.992188 391.792969 607.585938 C 392.386719 608.167969 393.140625 608.449219 393.894531 608.449219 C 394.5 608.449219 395.101562 608.265625 395.617188 607.898438 L 571.957031 482.84375 C 572.085938 482.75 572.265625 482.78125 572.355469 482.914062 L 581.238281 495.582031 C 582.425781 497.28125 585.035156 496.964844 585.78125 495.03125 L 601.714844 453.796875 C 602.375 452.078125 601.085938 450.242188 599.246094 450.277344 " fill-opacity="1" fill-rule="nonzero"/></g><path fill="#009245" d="M 344.386719 402.230469 L 344.386719 512.816406 C 344.386719 512.921875 344.328125 513.019531 344.234375 513.070312 L 302.285156 535.84375 C 302.09375 535.949219 301.859375 535.8125 301.859375 535.597656 L 301.859375 402.230469 C 301.859375 402.074219 301.988281 401.945312 302.148438 401.945312 L 344.097656 401.945312 C 344.257812 401.945312 344.386719 402.074219 344.386719 402.230469 " fill-opacity="1" fill-rule="nonzero"/><path fill="#e52e97" d="M 454.996094 429.570312 L 454.996094 529.945312 C 454.996094 530.035156 454.953125 530.125 454.875 530.179688 L 420.527344 554.535156 C 420.335938 554.667969 420.074219 554.53125 420.074219 554.300781 L 420.074219 489.886719 C 420.074219 486.144531 418.0625 482.617188 414.835938 480.707031 C 414.148438 480.300781 413.429688 479.964844 412.679688 479.734375 C 412.5625 479.695312 412.480469 479.585938 412.480469 479.464844 L 412.480469 429.570312 C 412.480469 429.410156 412.609375 429.28125 412.769531 429.28125 L 454.710938 429.28125 C 454.867188 429.28125 454.996094 429.410156 454.996094 429.570312 " fill-opacity="1" fill-rule="nonzero"/><path fill="#f15a24" d="M 399.691406 363.632812 L 399.691406 482.800781 C 399.691406 482.910156 399.632812 483.003906 399.542969 483.054688 L 357.601562 505.820312 C 357.410156 505.921875 357.175781 505.785156 357.175781 505.566406 L 357.175781 363.632812 C 357.175781 363.472656 357.308594 363.34375 357.464844 363.34375 L 399.402344 363.34375 C 399.5625 363.34375 399.691406 363.472656 399.691406 363.632812 " fill-opacity="1" fill-rule="nonzero"/><g clip-path="url(#91ac9decdc)"><path fill="#1b75bc" d="M 271.351562 540.308594 L 271.351562 339.3125 C 271.351562 324.636719 283.3125 312.695312 298.019531 312.695312 L 520.339844 312.695312 C 535.042969 312.695312 547.003906 324.636719 547.003906 339.3125 L 547.003906 428.660156 C 547.003906 432.925781 550.46875 436.382812 554.738281 436.382812 C 559.011719 436.382812 562.472656 432.925781 562.472656 428.660156 L 562.472656 339.3125 C 562.472656 316.121094 543.570312 297.253906 520.339844 297.253906 L 298.019531 297.253906 C 274.785156 297.253906 255.886719 316.121094 255.886719 339.3125 L 255.886719 540.308594 C 255.886719 544.574219 259.347656 548.027344 263.617188 548.027344 C 267.890625 548.027344 271.351562 544.574219 271.351562 540.308594 Z M 514.46875 341.335938 L 514.46875 487.765625 C 514.46875 487.859375 514.421875 487.949219 514.34375 488.003906 L 472.390625 517.75 C 472.203125 517.882812 471.941406 517.75 471.941406 517.515625 L 471.941406 341.335938 C 471.941406 341.175781 472.066406 341.050781 472.226562 341.050781 L 514.179688 341.050781 C 514.335938 341.050781 514.46875 341.175781 514.46875 341.335938 " fill-opacity="1" fill-rule="nonzero"/></g></svg>