<svg xmlns="http://www.w3.org/2000/svg" xmlns:xlink="http://www.w3.org/1999/xlink" width="1000" zoomAndPan="magnify" viewBox="0 0 750 749.999995" height="1000" preserveAspectRatio="xMidYMid meet" version="1.0"><defs><clipPath id="c4b914bfe4"><path d="M 67 372 L 718 372 L 718 674.960938 L 67 674.960938 Z M 67 372 " clip-rule="nonzero"/></clipPath><clipPath id="78cfef9593"><path d="M 57.453125 80.210938 L 643 80.210938 L 643 560 L 57.453125 560 Z M 57.453125 80.210938 " clip-rule="nonzero"/></clipPath></defs><g clip-path="url(#c4b914bfe4)"><path fill="#f15a24" d="M 712.210938 372.664062 L 627.792969 374.191406 C 623.832031 374.261719 621.558594 378.730469 623.832031 381.976562 L 636.894531 400.648438 C 637.066406 400.898438 637.011719 401.242188 636.765625 401.414062 L 356.652344 600.46875 C 356.289062 600.722656 355.785156 600.460938 355.785156 600.019531 L 355.785156 448.355469 C 355.785156 446.355469 354.730469 444.503906 353.007812 443.484375 C 351.292969 442.453125 349.160156 442.414062 347.402344 443.371094 L 70.359375 593.316406 C 69.035156 594.03125 68.054688 595.242188 67.628906 596.691406 C 67.203125 598.132812 67.367188 599.691406 68.085938 601.007812 L 82.179688 626.925781 C 83.671875 629.683594 87.113281 630.695312 89.871094 629.199219 L 314.132812 507.96875 C 314.5 507.765625 314.941406 508.035156 314.941406 508.449219 L 314.941406 668.832031 C 314.941406 670.457031 315.445312 672.113281 316.609375 673.25 C 317.746094 674.359375 319.179688 674.898438 320.617188 674.898438 C 321.773438 674.898438 322.921875 674.546875 323.902344 673.851562 L 660.167969 434.894531 C 660.414062 434.714844 660.761719 434.777344 660.933594 435.027344 L 677.871094 459.238281 C 680.136719 462.484375 685.113281 461.875 686.535156 458.183594 L 716.914062 379.390625 C 718.175781 376.109375 715.714844 372.601562 712.210938 372.664062 " fill-opacity="1" fill-rule="nonzero"/></g><path fill="#009245" d="M 226.210938 280.859375 L 226.210938 492.167969 C 226.210938 492.367188 226.101562 492.550781 225.925781 492.648438 L 145.925781 536.167969 C 145.5625 536.367188 145.117188 536.105469 145.117188 535.695312 L 145.117188 280.859375 C 145.117188 280.558594 145.363281 280.316406 145.667969 280.316406 L 225.664062 280.316406 C 225.964844 280.316406 226.210938 280.558594 226.210938 280.859375 " fill-opacity="1" fill-rule="nonzero"/><path fill="#e52e97" d="M 437.132812 333.097656 L 437.132812 524.894531 C 437.132812 525.066406 437.050781 525.238281 436.90625 525.339844 L 371.40625 571.878906 C 371.042969 572.136719 370.542969 571.875 370.542969 571.433594 L 370.542969 448.347656 C 370.542969 441.199219 366.707031 434.460938 360.554688 430.808594 C 359.242188 430.035156 357.871094 429.394531 356.441406 428.949219 C 356.21875 428.878906 356.0625 428.671875 356.0625 428.4375 L 356.0625 333.097656 C 356.0625 332.796875 356.308594 332.546875 356.613281 332.546875 L 436.589844 332.546875 C 436.890625 332.546875 437.132812 332.796875 437.132812 333.097656 " fill-opacity="1" fill-rule="nonzero"/><path fill="#f15a24" d="M 331.675781 207.105469 L 331.675781 434.8125 C 331.675781 435.019531 331.5625 435.199219 331.386719 435.292969 L 251.414062 478.796875 C 251.046875 478.996094 250.601562 478.734375 250.601562 478.3125 L 250.601562 207.105469 C 250.601562 206.804688 250.847656 206.554688 251.152344 206.554688 L 331.125 206.554688 C 331.425781 206.554688 331.675781 206.804688 331.675781 207.105469 " fill-opacity="1" fill-rule="nonzero"/><g clip-path="url(#78cfef9593)"><path fill="#1b75bc" d="M 86.941406 544.699219 L 86.941406 160.632812 C 86.941406 132.59375 109.75 109.773438 137.789062 109.773438 L 561.738281 109.773438 C 589.78125 109.773438 612.585938 132.59375 612.585938 160.632812 L 612.585938 331.363281 C 612.585938 339.507812 619.195312 346.117188 627.339844 346.117188 C 635.484375 346.117188 642.082031 339.507812 642.082031 331.363281 L 642.082031 160.632812 C 642.082031 116.320312 606.042969 80.269531 561.738281 80.269531 L 137.789062 80.269531 C 93.484375 80.269531 57.445312 116.320312 57.445312 160.632812 L 57.445312 544.699219 C 57.445312 552.84375 64.046875 559.449219 72.191406 559.449219 C 80.339844 559.449219 86.941406 552.84375 86.941406 544.699219 Z M 550.542969 164.5 L 550.542969 444.300781 C 550.542969 444.472656 550.453125 444.644531 550.308594 444.75 L 470.308594 501.59375 C 469.949219 501.847656 469.449219 501.59375 469.449219 501.144531 L 469.449219 164.5 C 469.449219 164.199219 469.691406 163.957031 469.992188 163.957031 L 549.992188 163.957031 C 550.292969 163.957031 550.542969 164.199219 550.542969 164.5 " fill-opacity="1" fill-rule="nonzero"/></g></svg>