<svg xmlns="http://www.w3.org/2000/svg" xmlns:xlink="http://www.w3.org/1999/xlink" width="1000" zoomAndPan="magnify" viewBox="0 0 750 749.999995" height="1000" preserveAspectRatio="xMidYMid meet" version="1.0"><defs><g/><clipPath id="02b0d6e6ba"><path d="M 124 282 L 625 282 L 625 515.394531 L 124 515.394531 Z M 124 282 " clip-rule="nonzero"/></clipPath><clipPath id="04640c5819"><path d="M 116.425781 57.144531 L 568 57.144531 L 568 427 L 116.425781 427 Z M 116.425781 57.144531 " clip-rule="nonzero"/></clipPath><clipPath id="bfbf643d8d"><rect x="0" width="505" y="0" height="131"/></clipPath><clipPath id="892a4e4849"><rect x="0" width="655" y="0" height="57"/></clipPath></defs><rect x="-75" width="900" fill="#ffffff" y="-74.999999" height="899.999994" fill-opacity="1"/><rect x="-75" width="900" fill="#ffffff" y="-74.999999" height="899.999994" fill-opacity="1"/><g clip-path="url(#02b0d6e6ba)"><path fill="#f15a24" d="M 621.058594 282.476562 L 555.996094 283.65625 C 552.945312 283.710938 551.191406 287.152344 552.945312 289.652344 L 563.011719 304.042969 C 563.144531 304.230469 563.101562 304.496094 562.910156 304.628906 L 347.023438 458 C 346.742188 458.199219 346.355469 457.996094 346.355469 457.65625 L 346.355469 340.800781 C 346.355469 339.257812 345.542969 337.832031 344.214844 337.042969 C 342.894531 336.253906 341.25 336.222656 339.894531 336.960938 L 126.375 452.488281 C 125.355469 453.042969 124.597656 453.976562 124.269531 455.089844 C 123.941406 456.199219 124.070312 457.402344 124.621094 458.417969 L 135.484375 478.386719 C 136.632812 480.511719 139.285156 481.289062 141.410156 480.140625 L 314.253906 386.730469 C 314.535156 386.574219 314.878906 386.78125 314.878906 387.101562 L 314.878906 510.675781 C 314.878906 511.929688 315.265625 513.203125 316.160156 514.078125 C 317.039062 514.933594 318.144531 515.347656 319.25 515.347656 C 320.140625 515.347656 321.027344 515.078125 321.78125 514.542969 L 580.949219 330.429688 C 581.140625 330.289062 581.40625 330.335938 581.539062 330.53125 L 594.589844 349.183594 C 596.339844 351.683594 600.171875 351.214844 601.269531 348.371094 L 624.683594 287.660156 C 625.65625 285.132812 623.761719 282.429688 621.058594 282.476562 " fill-opacity="1" fill-rule="nonzero"/></g><path fill="#009245" d="M 246.492188 211.742188 L 246.492188 374.554688 C 246.492188 374.707031 246.40625 374.851562 246.269531 374.925781 L 184.617188 408.457031 C 184.332031 408.613281 183.992188 408.410156 183.992188 408.09375 L 183.992188 211.742188 C 183.992188 211.511719 184.179688 211.324219 184.414062 211.324219 L 246.070312 211.324219 C 246.300781 211.324219 246.492188 211.511719 246.492188 211.742188 " fill-opacity="1" fill-rule="nonzero"/><path fill="#e52e97" d="M 409.054688 251.992188 L 409.054688 399.769531 C 409.054688 399.902344 408.988281 400.035156 408.875 400.117188 L 358.398438 435.976562 C 358.117188 436.171875 357.730469 435.972656 357.730469 435.628906 L 357.730469 340.792969 C 357.730469 335.285156 354.773438 330.09375 350.03125 327.277344 C 349.019531 326.683594 347.960938 326.191406 346.863281 325.847656 C 346.6875 325.792969 346.570312 325.632812 346.570312 325.453125 L 346.570312 251.992188 C 346.570312 251.761719 346.761719 251.566406 346.996094 251.566406 L 408.632812 251.566406 C 408.867188 251.566406 409.054688 251.761719 409.054688 251.992188 " fill-opacity="1" fill-rule="nonzero"/><path fill="#f15a24" d="M 327.773438 154.914062 L 327.773438 330.363281 C 327.773438 330.523438 327.6875 330.664062 327.550781 330.734375 L 265.914062 364.253906 C 265.632812 364.40625 265.289062 364.203125 265.289062 363.882812 L 265.289062 154.914062 C 265.289062 154.683594 265.480469 154.488281 265.710938 154.488281 L 327.351562 154.488281 C 327.582031 154.488281 327.773438 154.683594 327.773438 154.914062 " fill-opacity="1" fill-rule="nonzero"/><g clip-path="url(#04640c5819)"><path fill="#1b75bc" d="M 139.152344 415.03125 L 139.152344 119.109375 C 139.152344 97.503906 156.734375 79.921875 178.34375 79.921875 L 505.085938 79.921875 C 526.699219 79.921875 544.277344 97.503906 544.277344 119.109375 L 544.277344 250.65625 C 544.277344 256.929688 549.371094 262.023438 555.644531 262.023438 C 561.921875 262.023438 567.007812 256.929688 567.007812 250.65625 L 567.007812 119.109375 C 567.007812 84.964844 539.230469 57.1875 505.085938 57.1875 L 178.34375 57.1875 C 144.199219 57.1875 116.421875 84.964844 116.421875 119.109375 L 116.421875 415.03125 C 116.421875 421.308594 121.507812 426.394531 127.785156 426.394531 C 134.066406 426.394531 139.152344 421.308594 139.152344 415.03125 Z M 496.457031 122.089844 L 496.457031 337.675781 C 496.457031 337.808594 496.390625 337.941406 496.277344 338.023438 L 434.621094 381.820312 C 434.34375 382.015625 433.957031 381.820312 433.957031 381.472656 L 433.957031 122.089844 C 433.957031 121.855469 434.144531 121.667969 434.375 121.667969 L 496.03125 121.667969 C 496.265625 121.667969 496.457031 121.855469 496.457031 122.089844 " fill-opacity="1" fill-rule="nonzero"/></g><g transform="matrix(1, 0, 0, 1, 119, 521)"><g clip-path="url(#bfbf643d8d)"><g fill="#1b75bc" fill-opacity="1"><g transform="translate(2.034732, 101.181999)"><g><path d="M 64.671875 0 L 48.34375 0 L 22.859375 -46.15625 L 22.859375 0 L 6.53125 0 L 6.53125 -74.03125 L 22.859375 -74.03125 L 48.34375 -27.875 L 48.34375 -74.03125 L 64.671875 -74.03125 Z M 64.671875 0 "/></g></g></g><g fill="#1b75bc" fill-opacity="1"><g transform="translate(74.327513, 101.181999)"><g><path d="M 46.8125 -28.3125 L 37.453125 -54.65625 L 28.09375 -28.3125 Z M 74.46875 0 L 56.9375 0 L 51.609375 -14.921875 L 23.40625 -14.921875 L 18.078125 0 L 0.546875 0 L 30.59375 -74.03125 L 44.421875 -74.03125 Z M 74.46875 0 "/></g></g></g><g fill="#1b75bc" fill-opacity="1"><g transform="translate(150.4309, 101.181999)"><g><path d="M 38 -59.234375 L 38 0 L 21.671875 0 L 21.671875 -59.234375 L 0.546875 -59.234375 L 0.546875 -74.03125 L 59.125 -74.03125 L 59.125 -59.234375 Z M 38 -59.234375 "/></g></g></g><g fill="#1b75bc" fill-opacity="1"><g transform="translate(211.182979, 101.181999)"><g><path d="M 64.671875 0 L 48.34375 0 L 22.859375 -46.15625 L 22.859375 0 L 6.53125 0 L 6.53125 -74.03125 L 22.859375 -74.03125 L 48.34375 -27.875 L 48.34375 -74.03125 L 64.671875 -74.03125 Z M 64.671875 0 "/></g></g></g><g fill="#1b75bc" fill-opacity="1"><g transform="translate(283.47576, 101.181999)"><g/></g></g><g fill="#1b75bc" fill-opacity="1"><g transform="translate(311.783214, 101.181999)"><g><path d="M 6.53125 0 L 6.53125 -74.03125 L 22.859375 -74.03125 L 22.859375 -14.8125 L 49.421875 -14.8125 L 49.421875 0 Z M 6.53125 0 "/></g></g></g><g fill="#1b75bc" fill-opacity="1"><g transform="translate(366.111675, 101.181999)"><g><path d="M 46.8125 -28.3125 L 37.453125 -54.65625 L 28.09375 -28.3125 Z M 74.46875 0 L 56.9375 0 L 51.609375 -14.921875 L 23.40625 -14.921875 L 18.078125 0 L 0.546875 0 L 30.59375 -74.03125 L 44.421875 -74.03125 Z M 74.46875 0 "/></g></g></g><g fill="#1b75bc" fill-opacity="1"><g transform="translate(442.215063, 101.181999)"><g><path d="M 42.25 -21.671875 C 42.25 -24.066406 41.359375 -26.148438 39.578125 -27.921875 C 37.796875 -29.703125 35.671875 -30.59375 33.203125 -30.59375 L 22.859375 -30.59375 L 22.859375 -12.734375 L 33.203125 -12.734375 C 35.671875 -12.734375 37.796875 -13.601562 39.578125 -15.34375 C 41.359375 -17.09375 42.25 -19.203125 42.25 -21.671875 Z M 37.125 -52.59375 C 37.125 -54.976562 36.269531 -57.003906 34.5625 -58.671875 C 32.863281 -60.347656 30.851562 -61.1875 28.53125 -61.1875 L 22.859375 -61.1875 L 22.859375 -43.984375 L 28.53125 -43.984375 C 30.851562 -43.984375 32.863281 -44.835938 34.5625 -46.546875 C 36.269531 -48.253906 37.125 -50.269531 37.125 -52.59375 Z M 58.90625 -21.234375 C 58.90625 -14.847656 56.941406 -9.710938 53.015625 -5.828125 C 49.097656 -1.941406 43.582031 0 36.46875 0 L 6.53125 0 L 6.53125 -74.03125 L 32.015625 -74.03125 C 36.222656 -74.03125 39.867188 -73.195312 42.953125 -71.53125 C 46.035156 -69.863281 48.429688 -67.628906 50.140625 -64.828125 C 51.847656 -62.035156 52.703125 -58.9375 52.703125 -55.53125 C 52.703125 -51.75 51.921875 -48.5 50.359375 -45.78125 C 48.796875 -43.0625 46.632812 -41.082031 43.875 -39.84375 C 48.007812 -38.90625 51.546875 -36.820312 54.484375 -33.59375 C 57.429688 -30.363281 58.90625 -26.242188 58.90625 -21.234375 Z M 58.90625 -21.234375 "/></g></g></g></g></g><g transform="matrix(1, 0, 0, 1, 48, 633)"><g clip-path="url(#892a4e4849)"><g fill="#009245" fill-opacity="1"><g transform="translate(1.726162, 41.97166)"><g><path d="M 9.375 -5.3125 L 18.40625 -5.3125 L 18.40625 0 L 2.5 0 L 2.5 -28.265625 L 9.375 -28.265625 Z M 9.375 -5.3125 "/></g></g></g><g fill="#009245" fill-opacity="1"><g transform="translate(30.995101, 41.97166)"><g><path d="M 9.375 -22.75 L 9.375 -17.03125 L 18.609375 -17.03125 L 18.609375 -11.71875 L 9.375 -11.71875 L 9.375 -5.515625 L 19.8125 -5.515625 L 19.8125 0 L 2.5 0 L 2.5 -28.265625 L 19.8125 -28.265625 L 19.8125 -22.75 Z M 9.375 -22.75 "/></g></g></g><g fill="#009245" fill-opacity="1"><g transform="translate(62.84055, 41.97166)"><g><path d="M 20.09375 -5 L 9.546875 -5 L 7.859375 0 L 0.640625 0 L 10.875 -28.265625 L 18.84375 -28.265625 L 29.078125 0 L 21.78125 0 Z M 18.328125 -10.3125 L 14.8125 -20.65625 L 11.359375 -10.3125 Z M 18.328125 -10.3125 "/></g></g></g><g fill="#009245" fill-opacity="1"><g transform="translate(102.576554, 41.97166)"><g><path d="M 16.90625 0 L 11.03125 -10.671875 L 9.375 -10.671875 L 9.375 0 L 2.5 0 L 2.5 -28.265625 L 14.046875 -28.265625 C 16.273438 -28.265625 18.175781 -27.875 19.75 -27.09375 C 21.320312 -26.320312 22.492188 -25.253906 23.265625 -23.890625 C 24.046875 -22.535156 24.4375 -21.03125 24.4375 -19.375 C 24.4375 -17.488281 23.90625 -15.804688 22.84375 -14.328125 C 21.789062 -12.859375 20.226562 -11.8125 18.15625 -11.1875 L 24.6875 0 Z M 9.375 -15.546875 L 13.65625 -15.546875 C 14.914062 -15.546875 15.859375 -15.851562 16.484375 -16.46875 C 17.117188 -17.082031 17.4375 -17.953125 17.4375 -19.078125 C 17.4375 -20.160156 17.117188 -21.007812 16.484375 -21.625 C 15.859375 -22.238281 14.914062 -22.546875 13.65625 -22.546875 L 9.375 -22.546875 Z M 9.375 -15.546875 "/></g></g></g><g fill="#009245" fill-opacity="1"><g transform="translate(138.890635, 41.97166)"><g><path d="M 27.78125 0 L 20.890625 0 L 9.375 -17.4375 L 9.375 0 L 2.5 0 L 2.5 -28.265625 L 9.375 -28.265625 L 20.890625 -10.75 L 20.890625 -28.265625 L 27.78125 -28.265625 Z M 27.78125 0 "/></g></g></g><g fill="#009245" fill-opacity="1"><g transform="translate(179.23051, 41.97166)"><g/></g></g><g fill="#1b75bc" fill-opacity="1"><g transform="translate(197.83243, 41.97166)"><g><path d="M 19.8125 -16.984375 L 19.8125 -11.28125 L 2.09375 -11.28125 L 2.09375 -16.984375 Z M 19.8125 -16.984375 "/></g></g></g><g fill="#009245" fill-opacity="1"><g transform="translate(231.255732, 41.97166)"><g/></g></g><g fill="#f15a24" fill-opacity="1"><g transform="translate(249.866586, 41.97166)"><g><path d="M 22.828125 -28.265625 L 22.828125 -22.75 L 15.34375 -22.75 L 15.34375 0 L 8.453125 0 L 8.453125 -22.75 L 0.96875 -22.75 L 0.96875 -28.265625 Z M 22.828125 -28.265625 "/></g></g></g><g fill="#f15a24" fill-opacity="1"><g transform="translate(283.72493, 41.97166)"><g><path d="M 9.375 -22.75 L 9.375 -17.03125 L 18.609375 -17.03125 L 18.609375 -11.71875 L 9.375 -11.71875 L 9.375 -5.515625 L 19.8125 -5.515625 L 19.8125 0 L 2.5 0 L 2.5 -28.265625 L 19.8125 -28.265625 L 19.8125 -22.75 Z M 9.375 -22.75 "/></g></g></g><g fill="#f15a24" fill-opacity="1"><g transform="translate(315.570379, 41.97166)"><g><path d="M 12.71875 0.28125 C 10.65625 0.28125 8.804688 -0.0507812 7.171875 -0.71875 C 5.535156 -1.394531 4.222656 -2.390625 3.234375 -3.703125 C 2.253906 -5.015625 1.738281 -6.597656 1.6875 -8.453125 L 9.015625 -8.453125 C 9.128906 -7.410156 9.492188 -6.613281 10.109375 -6.0625 C 10.722656 -5.507812 11.523438 -5.234375 12.515625 -5.234375 C 13.535156 -5.234375 14.34375 -5.46875 14.9375 -5.9375 C 15.53125 -6.40625 15.828125 -7.054688 15.828125 -7.890625 C 15.828125 -8.585938 15.59375 -9.164062 15.125 -9.625 C 14.65625 -10.082031 14.078125 -10.457031 13.390625 -10.75 C 12.703125 -11.039062 11.726562 -11.375 10.46875 -11.75 C 8.644531 -12.320312 7.15625 -12.890625 6 -13.453125 C 4.84375 -14.015625 3.847656 -14.84375 3.015625 -15.9375 C 2.179688 -17.039062 1.765625 -18.476562 1.765625 -20.25 C 1.765625 -22.882812 2.71875 -24.945312 4.625 -26.4375 C 6.53125 -27.925781 9.015625 -28.671875 12.078125 -28.671875 C 15.191406 -28.671875 17.703125 -27.925781 19.609375 -26.4375 C 21.515625 -24.945312 22.535156 -22.875 22.671875 -20.21875 L 15.21875 -20.21875 C 15.164062 -21.125 14.828125 -21.835938 14.203125 -22.359375 C 13.585938 -22.890625 12.800781 -23.15625 11.84375 -23.15625 C 11.007812 -23.15625 10.335938 -22.929688 9.828125 -22.484375 C 9.316406 -22.046875 9.0625 -21.410156 9.0625 -20.578125 C 9.0625 -19.660156 9.488281 -18.945312 10.34375 -18.4375 C 11.207031 -17.925781 12.550781 -17.378906 14.375 -16.796875 C 16.195312 -16.171875 17.675781 -15.578125 18.8125 -15.015625 C 19.957031 -14.453125 20.945312 -13.632812 21.78125 -12.5625 C 22.613281 -11.488281 23.03125 -10.109375 23.03125 -8.421875 C 23.03125 -6.804688 22.617188 -5.335938 21.796875 -4.015625 C 20.984375 -2.703125 19.796875 -1.65625 18.234375 -0.875 C 16.679688 -0.101562 14.84375 0.28125 12.71875 0.28125 Z M 12.71875 0.28125 "/></g></g></g><g fill="#f15a24" fill-opacity="1"><g transform="translate(350.394908, 41.97166)"><g><path d="M 22.828125 -28.265625 L 22.828125 -22.75 L 15.34375 -22.75 L 15.34375 0 L 8.453125 0 L 8.453125 -22.75 L 0.96875 -22.75 L 0.96875 -28.265625 Z M 22.828125 -28.265625 "/></g></g></g><g fill="#009245" fill-opacity="1"><g transform="translate(384.258508, 41.97166)"><g/></g></g><g fill="#009245" fill-opacity="1"><g transform="translate(402.859085, 41.97166)"><g/></g></g><g fill="#1b75bc" fill-opacity="1"><g transform="translate(421.467507, 41.97166)"><g><path d="M 19.8125 -16.984375 L 19.8125 -11.28125 L 2.09375 -11.28125 L 2.09375 -16.984375 Z M 19.8125 -16.984375 "/></g></g></g><g fill="#009245" fill-opacity="1"><g transform="translate(454.890809, 41.97166)"><g/></g></g><g fill="#e52e97" fill-opacity="1"><g transform="translate(473.501662, 41.97166)"><g><path d="M 22.828125 -28.265625 L 22.828125 -22.75 L 15.34375 -22.75 L 15.34375 0 L 8.453125 0 L 8.453125 -22.75 L 0.96875 -22.75 L 0.96875 -28.265625 Z M 22.828125 -28.265625 "/></g></g></g><g fill="#e52e97" fill-opacity="1"><g transform="translate(507.360007, 41.97166)"><g><path d="M 16.90625 0 L 11.03125 -10.671875 L 9.375 -10.671875 L 9.375 0 L 2.5 0 L 2.5 -28.265625 L 14.046875 -28.265625 C 16.273438 -28.265625 18.175781 -27.875 19.75 -27.09375 C 21.320312 -26.320312 22.492188 -25.253906 23.265625 -23.890625 C 24.046875 -22.535156 24.4375 -21.03125 24.4375 -19.375 C 24.4375 -17.488281 23.90625 -15.804688 22.84375 -14.328125 C 21.789062 -12.859375 20.226562 -11.8125 18.15625 -11.1875 L 24.6875 0 Z M 9.375 -15.546875 L 13.65625 -15.546875 C 14.914062 -15.546875 15.859375 -15.851562 16.484375 -16.46875 C 17.117188 -17.082031 17.4375 -17.953125 17.4375 -19.078125 C 17.4375 -20.160156 17.117188 -21.007812 16.484375 -21.625 C 15.859375 -22.238281 14.914062 -22.546875 13.65625 -22.546875 L 9.375 -22.546875 Z M 9.375 -15.546875 "/></g></g></g><g fill="#e52e97" fill-opacity="1"><g transform="translate(543.674089, 41.97166)"><g><path d="M 20.09375 -5 L 9.546875 -5 L 7.859375 0 L 0.640625 0 L 10.875 -28.265625 L 18.84375 -28.265625 L 29.078125 0 L 21.78125 0 Z M 18.328125 -10.3125 L 14.8125 -20.65625 L 11.359375 -10.3125 Z M 18.328125 -10.3125 "/></g></g></g><g fill="#e52e97" fill-opacity="1"><g transform="translate(583.410093, 41.97166)"><g><path d="M 13.09375 -28.265625 C 16.070312 -28.265625 18.671875 -27.671875 20.890625 -26.484375 C 23.117188 -25.304688 24.84375 -23.648438 26.0625 -21.515625 C 27.289062 -19.390625 27.90625 -16.929688 27.90625 -14.140625 C 27.90625 -11.367188 27.289062 -8.910156 26.0625 -6.765625 C 24.84375 -4.617188 23.113281 -2.953125 20.875 -1.765625 C 18.632812 -0.585938 16.039062 0 13.09375 0 L 2.5 0 L 2.5 -28.265625 Z M 12.640625 -5.953125 C 15.242188 -5.953125 17.269531 -6.664062 18.71875 -8.09375 C 20.164062 -9.519531 20.890625 -11.535156 20.890625 -14.140625 C 20.890625 -16.734375 20.164062 -18.753906 18.71875 -20.203125 C 17.269531 -21.660156 15.242188 -22.390625 12.640625 -22.390625 L 9.375 -22.390625 L 9.375 -5.953125 Z M 12.640625 -5.953125 "/></g></g></g><g fill="#e52e97" fill-opacity="1"><g transform="translate(622.743513, 41.97166)"><g><path d="M 9.375 -22.75 L 9.375 -17.03125 L 18.609375 -17.03125 L 18.609375 -11.71875 L 9.375 -11.71875 L 9.375 -5.515625 L 19.8125 -5.515625 L 19.8125 0 L 2.5 0 L 2.5 -28.265625 L 19.8125 -28.265625 L 19.8125 -22.75 Z M 9.375 -22.75 "/></g></g></g></g></g></svg>